<svg width="737" height="148" viewBox="0 0 737 148" fill="none" xmlns="http://www.w3.org/2000/svg">
<path d="M344.083 20.7871C366.715 20.7873 380.859 34.809 380.859 55.9648C380.859 77.1206 366.715 91.1424 344.083 91.1426C321.451 91.1426 307.183 77.1208 307.183 55.9648C307.183 34.8088 321.451 20.7871 344.083 20.7871ZM484.187 23.001H500.3V33.333H484.187V72.5693C484.187 78.1043 486.401 80.3184 492.305 80.3184C494.519 80.3183 497.102 79.9499 500.3 79.2119V90.0361C496.241 90.6511 492.673 91.1426 489.353 91.1426C477.668 91.1426 472.255 86.2227 472.255 76.0137V33.333H460.816V23.001H472.255V6.27246H484.187V23.001ZM143.223 20.7871C165.117 20.7871 173.357 26.5677 173.357 42.6807V69.249C173.357 76.1368 174.588 78.9658 179.262 78.9658C180.246 78.9658 181.353 78.8427 182.706 78.5967V88.1904C178.893 88.6824 175.694 88.8057 173.48 88.8057C166.593 88.8056 163.026 85.7306 161.796 78.5967C155.892 86.2226 146.298 90.4042 134.121 90.4043C117.639 90.4043 108.66 82.9016 108.66 70.6016C108.66 63.7136 111.858 58.4243 118.131 54.6113C122.067 52.2745 129.201 51.2906 139.287 50.1836C153.924 48.5847 161.18 48.9536 161.181 41.082C161.181 33.9481 156.015 31.1192 144.084 31.1191C130.8 31.1191 124.527 34.6856 123.912 44.0332H111.488C112.349 28.5355 123.051 20.7871 143.223 20.7871ZM538.312 20.7871C560.206 20.7872 568.447 26.5678 568.447 42.6807V69.249C568.447 76.1368 569.678 78.9658 574.352 78.9658C575.335 78.9658 576.442 78.8426 577.795 78.5967V88.1904C573.982 88.6824 570.784 88.8057 568.57 88.8057C561.682 88.8057 558.115 85.7307 556.885 78.5967C550.981 86.2226 541.387 90.4043 529.21 90.4043C512.728 90.4042 503.749 82.9015 503.749 70.6016C503.749 63.7137 506.947 58.4243 513.22 54.6113C517.156 52.2743 524.29 51.2906 534.376 50.1836C549.013 48.5846 556.27 48.9537 556.271 41.082C556.271 33.948 551.104 31.1191 539.173 31.1191C525.889 31.1192 519.616 34.6856 519.001 44.0332H506.578C507.439 28.5355 518.141 20.7871 538.312 20.7871ZM692.192 20.7871C714.086 20.7872 722.327 26.5678 722.327 42.6807V69.249C722.327 76.1366 723.557 78.9656 728.23 78.9658C729.214 78.9658 730.322 78.8427 731.675 78.5967V88.1904C727.862 88.6824 724.664 88.8057 722.45 88.8057C715.562 88.8057 711.995 85.7307 710.765 78.5967C704.861 86.2226 695.267 90.4043 683.09 90.4043C666.608 90.4043 657.629 82.9016 657.629 70.6016C657.629 63.7136 660.827 58.4243 667.1 54.6113C671.036 52.2743 678.17 51.2906 688.256 50.1836C702.893 48.5846 710.149 48.9537 710.149 41.082C710.149 33.948 704.984 31.1191 693.053 31.1191C679.769 31.1192 673.496 34.6856 672.881 44.0332H660.458C661.319 28.5355 672.021 20.7871 692.192 20.7871ZM51.5303 0C66.0441 5.77614e-06 77.3603 0.491331 87.3232 8.24023C96.9172 15.7432 102.083 28.0435 102.083 44.4023C102.083 60.7612 96.9171 73.0614 87.3232 80.5645C77.3603 88.3134 66.0442 88.8057 51.5303 88.8057H12.416V77.8057H55.5889C66.0438 77.8057 73.547 76.2598 79.082 71.4629C84.986 66.4199 89.0449 56.4563 89.0449 44.2793C89.0448 32.1025 84.986 22.2627 79.082 17.2197C73.547 12.4227 66.0439 10.8057 55.5889 10.8057H12.416V0H51.5303ZM243.578 77.3662L278.756 0H297.452V88.8057H285.152L285.891 9.22461L249.975 88.8057H237.183L201.881 9.22461L202.619 88.8057H190.319V0H209.261L243.578 77.3662ZM428.079 21.2783C436.812 21.2783 443.577 23.8615 447.882 28.7812C452.679 34.3163 453.048 41.2049 453.048 51.0449V88.8057H441.117V50.5527C441.117 37.2687 437.181 31.3643 425.373 31.3643C411.351 31.3643 401.02 40.7127 401.02 55.3496V88.8057H389.088V23.001H400.896V34.3164C407.661 26.0756 416.271 21.2783 428.079 21.2783ZM622.924 21.2783C631.657 21.2784 638.422 23.8615 642.727 28.7812C647.524 34.3163 647.893 41.2049 647.893 51.0449V88.8057H635.962V50.5527C635.962 37.2688 632.026 31.3643 620.218 31.3643C606.196 31.3643 595.863 40.7126 595.863 55.3496V88.8057H583.933V23.001H595.74V34.3164C602.505 26.0754 611.116 21.2783 622.924 21.2783ZM161.427 54.9805C157.983 57.0714 151.464 58.4243 141.501 59.5312C128.709 61.0072 121.697 62.1146 121.697 70.1094C121.697 76.3824 126.864 80.3184 136.089 80.3184C151.341 80.3183 161.427 73.0613 161.427 64.8203V54.9805ZM556.517 54.9805C553.073 57.0715 546.553 58.4242 536.59 59.5312C523.798 61.0072 516.787 62.1147 516.787 70.1094C516.787 76.3823 521.953 80.3182 531.178 80.3184C546.43 80.3184 556.517 73.0613 556.517 64.8203V54.9805ZM710.396 54.9805C706.951 57.0714 700.433 58.4243 690.47 59.5312C677.678 61.0072 670.667 62.1147 670.667 70.1094C670.667 76.3823 675.833 80.3183 685.058 80.3184C700.31 80.3184 710.396 73.0613 710.396 64.8203V54.9805ZM344.083 31.8564C329.077 31.8564 319.605 41.0818 319.605 55.9648C319.606 70.8477 329.077 79.9492 344.083 79.9492C359.089 79.9491 368.436 70.8476 368.437 55.9648C368.437 41.082 359.089 31.8566 344.083 31.8564ZM24.9619 65.8057H12.416V22.8057H24.9619V65.8057Z" fill="url(#paint0_linear_4936_98)"/>
<path d="M345.202 139.806V108.096H358.112C361.495 108.096 364.454 108.775 366.991 110.134C369.558 111.463 371.551 113.32 372.971 115.706C374.39 118.092 375.1 120.84 375.1 123.951C375.1 127.061 374.39 129.809 372.971 132.195C371.551 134.581 369.558 136.453 366.991 137.812C364.454 139.141 361.495 139.806 358.112 139.806H345.202ZM348.554 136.906H357.931C360.74 136.906 363.171 136.363 365.224 135.276C367.308 134.158 368.924 132.633 370.071 130.7C371.219 128.737 371.793 126.487 371.793 123.951C371.793 121.384 371.219 119.134 370.071 117.201C368.924 115.268 367.308 113.758 365.224 112.671C363.171 111.554 360.74 110.995 357.931 110.995H348.554V136.906ZM384.892 139.806V108.096H406.636V110.995H388.244V136.906H407.316V139.806H384.892ZM387.882 125.128V122.275H404.643V125.128H387.882ZM426.203 140.077C423.848 140.077 421.583 139.7 419.408 138.945C417.264 138.16 415.603 137.163 414.425 135.955L415.739 133.373C416.856 134.46 418.351 135.381 420.224 136.136C422.126 136.861 424.12 137.224 426.203 137.224C428.197 137.224 429.812 136.982 431.05 136.499C432.319 135.985 433.24 135.306 433.814 134.46C434.418 133.615 434.72 132.678 434.72 131.652C434.72 130.413 434.357 129.417 433.633 128.662C432.938 127.907 432.017 127.318 430.869 126.895C429.722 126.442 428.453 126.05 427.064 125.717C425.675 125.385 424.286 125.038 422.896 124.675C421.507 124.283 420.224 123.769 419.046 123.135C417.898 122.501 416.962 121.671 416.237 120.644C415.543 119.587 415.195 118.213 415.195 116.521C415.195 114.951 415.603 113.517 416.419 112.218C417.264 110.889 418.548 109.832 420.269 109.047C421.99 108.232 424.195 107.824 426.883 107.824C428.665 107.824 430.431 108.081 432.183 108.594C433.935 109.077 435.445 109.757 436.713 110.632L435.58 113.305C434.221 112.399 432.772 111.735 431.232 111.312C429.722 110.889 428.257 110.678 426.838 110.678C424.935 110.678 423.365 110.934 422.126 111.448C420.888 111.961 419.967 112.656 419.363 113.532C418.789 114.377 418.502 115.344 418.502 116.431C418.502 117.669 418.85 118.666 419.544 119.421C420.269 120.176 421.205 120.765 422.353 121.187C423.531 121.61 424.814 121.988 426.203 122.32C427.593 122.652 428.967 123.014 430.326 123.407C431.715 123.8 432.983 124.313 434.131 124.947C435.309 125.551 436.245 126.367 436.939 127.393C437.664 128.42 438.027 129.764 438.027 131.425C438.027 132.965 437.604 134.4 436.758 135.729C435.913 137.027 434.614 138.084 432.862 138.9C431.141 139.685 428.921 140.077 426.203 140.077ZM447.596 139.806V108.096H450.948V139.806H447.596ZM477.437 140.077C475.021 140.077 472.786 139.685 470.733 138.9C468.709 138.084 466.943 136.952 465.433 135.502C463.953 134.053 462.79 132.346 461.945 130.383C461.129 128.42 460.722 126.276 460.722 123.951C460.722 121.625 461.129 119.481 461.945 117.518C462.79 115.555 463.968 113.849 465.478 112.399C466.988 110.95 468.755 109.832 470.778 109.047C472.832 108.232 475.067 107.824 477.483 107.824C479.899 107.824 482.103 108.201 484.096 108.956C486.12 109.711 487.841 110.859 489.261 112.399L487.177 114.528C485.848 113.199 484.383 112.248 482.783 111.674C481.182 111.101 479.461 110.814 477.618 110.814C475.655 110.814 473.843 111.146 472.182 111.81C470.552 112.444 469.117 113.366 467.879 114.574C466.671 115.751 465.72 117.141 465.025 118.741C464.361 120.312 464.028 122.048 464.028 123.951C464.028 125.823 464.361 127.56 465.025 129.16C465.72 130.761 466.671 132.165 467.879 133.373C469.117 134.551 470.552 135.472 472.182 136.136C473.843 136.771 475.64 137.088 477.573 137.088C479.385 137.088 481.091 136.816 482.692 136.272C484.323 135.729 485.818 134.808 487.177 133.509L489.079 136.046C487.569 137.375 485.803 138.386 483.779 139.081C481.756 139.745 479.642 140.077 477.437 140.077ZM489.079 136.046L485.863 135.638V123.951H489.079V136.046ZM500.832 139.806V108.096H503.595L525.475 135.638H524.025V108.096H527.332V139.806H524.569L502.734 112.263H504.184V139.806H500.832ZM560.501 133.554V114.347H563.355V133.554H560.501ZM552.075 125.31V122.637H571.781V125.31H552.075ZM610.282 140.077C607.896 140.077 605.691 139.685 603.668 138.9C601.644 138.084 599.893 136.952 598.413 135.502C596.933 134.053 595.771 132.346 594.925 130.383C594.11 128.42 593.702 126.276 593.702 123.951C593.702 121.625 594.11 119.481 594.925 117.518C595.771 115.555 596.933 113.849 598.413 112.399C599.923 110.95 601.69 109.832 603.713 109.047C605.737 108.232 607.941 107.824 610.327 107.824C612.622 107.824 614.781 108.216 616.805 109.002C618.828 109.757 620.535 110.904 621.924 112.444L619.795 114.574C618.496 113.245 617.062 112.293 615.491 111.72C613.921 111.116 612.23 110.814 610.418 110.814C608.515 110.814 606.748 111.146 605.117 111.81C603.487 112.444 602.067 113.366 600.859 114.574C599.651 115.751 598.7 117.141 598.005 118.741C597.341 120.312 597.009 122.048 597.009 123.951C597.009 125.853 597.341 127.605 598.005 129.205C598.7 130.776 599.651 132.165 600.859 133.373C602.067 134.551 603.487 135.472 605.117 136.136C606.748 136.771 608.515 137.088 610.418 137.088C612.23 137.088 613.921 136.786 615.491 136.182C617.062 135.578 618.496 134.611 619.795 133.282L621.924 135.412C620.535 136.952 618.828 138.114 616.805 138.9C614.781 139.685 612.607 140.077 610.282 140.077ZM643.162 140.077C640.776 140.077 638.556 139.685 636.503 138.9C634.479 138.084 632.712 136.952 631.202 135.502C629.723 134.022 628.56 132.316 627.714 130.383C626.899 128.42 626.491 126.276 626.491 123.951C626.491 121.625 626.899 119.496 627.714 117.563C628.56 115.6 629.723 113.894 631.202 112.444C632.712 110.965 634.479 109.832 636.503 109.047C638.526 108.232 640.746 107.824 643.162 107.824C645.547 107.824 647.752 108.232 649.775 109.047C651.799 109.832 653.55 110.95 655.03 112.399C656.54 113.849 657.703 115.555 658.518 117.518C659.364 119.481 659.787 121.625 659.787 123.951C659.787 126.276 659.364 128.42 658.518 130.383C657.703 132.346 656.54 134.053 655.03 135.502C653.55 136.952 651.799 138.084 649.775 138.9C647.752 139.685 645.547 140.077 643.162 140.077ZM643.162 137.088C645.064 137.088 646.816 136.771 648.416 136.136C650.047 135.472 651.452 134.551 652.629 133.373C653.837 132.165 654.774 130.776 655.438 129.205C656.102 127.605 656.435 125.853 656.435 123.951C656.435 122.048 656.102 120.312 655.438 118.741C654.774 117.141 653.837 115.751 652.629 114.574C651.452 113.366 650.047 112.444 648.416 111.81C646.816 111.146 645.064 110.814 643.162 110.814C641.259 110.814 639.492 111.146 637.862 111.81C636.231 112.444 634.811 113.366 633.603 114.574C632.426 115.751 631.489 117.141 630.795 118.741C630.13 120.312 629.798 122.048 629.798 123.951C629.798 125.823 630.13 127.56 630.795 129.16C631.489 130.761 632.426 132.165 633.603 133.373C634.811 134.551 636.231 135.472 637.862 136.136C639.492 136.771 641.259 137.088 643.162 137.088ZM669.566 139.806V108.096H682.476C685.858 108.096 688.818 108.775 691.355 110.134C693.922 111.463 695.915 113.32 697.334 115.706C698.754 118.092 699.464 120.84 699.464 123.951C699.464 127.061 698.754 129.809 697.334 132.195C695.915 134.581 693.922 136.453 691.355 137.812C688.818 139.141 685.858 139.806 682.476 139.806H669.566ZM672.918 136.906H682.295C685.103 136.906 687.535 136.363 689.588 135.276C691.672 134.158 693.288 132.633 694.435 130.7C695.583 128.737 696.157 126.487 696.157 123.951C696.157 121.384 695.583 119.134 694.435 117.201C693.288 115.268 691.672 113.758 689.588 112.671C687.535 111.554 685.103 110.995 682.295 110.995H672.918V136.906ZM709.256 139.806V108.096H731V110.995H712.608V136.906H731.68V139.806H709.256ZM712.246 125.128V122.275H729.007V125.128H712.246Z" fill="#1B91F2"/>
<path d="M0 22.8057L12.5 22.8057V16.8057V10.8057L0 10.8057V22.8057Z" fill="#2A3F94"/>
<path d="M0 77.8057H12.5V71.8057V65.8057H0V77.8057Z" fill="#2A3F94"/>
<path d="M12.5 22.8057L25 22.8057V65.8057H12.5V44.3057V22.8057Z" fill="#2A3F94"/>
<defs>
<linearGradient id="paint0_linear_4936_98" x1="-1" y1="44.3057" x2="734" y2="44.3057" gradientUnits="userSpaceOnUse">
<stop stop-color="#2A3A8F"/>
<stop offset="0.831731" stop-color="#2198F9"/>
</linearGradient>
</defs>
</svg>
