<svg width="737" height="148" viewBox="0 0 737 148" fill="none" xmlns="http://www.w3.org/2000/svg">
<path d="M344.083 20.7871C366.715 20.7873 380.859 34.809 380.859 55.9648C380.859 77.1206 366.715 91.1424 344.083 91.1426C321.451 91.1426 307.183 77.1208 307.183 55.9648C307.183 34.8088 321.451 20.7871 344.083 20.7871ZM484.187 23.001H500.3V33.333H484.187V72.5693C484.187 78.1043 486.401 80.3184 492.305 80.3184C494.519 80.3183 497.102 79.9499 500.3 79.2119V90.0361C496.241 90.6511 492.673 91.1426 489.353 91.1426C477.668 91.1426 472.255 86.2227 472.255 76.0137V33.333H460.816V23.001H472.255V6.27246H484.187V23.001ZM143.223 20.7871C165.117 20.7871 173.357 26.5677 173.357 42.6807V69.249C173.357 76.1368 174.588 78.9658 179.262 78.9658C180.246 78.9658 181.353 78.8427 182.706 78.5967V88.1904C178.893 88.6824 175.694 88.8057 173.48 88.8057C166.593 88.8056 163.026 85.7306 161.796 78.5967C155.892 86.2226 146.298 90.4042 134.121 90.4043C117.639 90.4043 108.66 82.9016 108.66 70.6016C108.66 63.7136 111.858 58.4243 118.131 54.6113C122.067 52.2745 129.201 51.2906 139.287 50.1836C153.924 48.5847 161.18 48.9536 161.181 41.082C161.181 33.9481 156.015 31.1192 144.084 31.1191C130.8 31.1191 124.527 34.6856 123.912 44.0332H111.488C112.349 28.5355 123.051 20.7871 143.223 20.7871ZM538.312 20.7871C560.206 20.7872 568.447 26.5678 568.447 42.6807V69.249C568.447 76.1368 569.678 78.9658 574.352 78.9658C575.335 78.9658 576.442 78.8426 577.795 78.5967V88.1904C573.982 88.6824 570.784 88.8057 568.57 88.8057C561.682 88.8057 558.115 85.7307 556.885 78.5967C550.981 86.2226 541.387 90.4043 529.21 90.4043C512.728 90.4042 503.749 82.9015 503.749 70.6016C503.749 63.7137 506.947 58.4243 513.22 54.6113C517.156 52.2743 524.29 51.2906 534.376 50.1836C549.013 48.5846 556.27 48.9537 556.271 41.082C556.271 33.948 551.104 31.1191 539.173 31.1191C525.889 31.1192 519.616 34.6856 519.001 44.0332H506.578C507.439 28.5355 518.141 20.7871 538.312 20.7871ZM692.192 20.7871C714.086 20.7872 722.327 26.5678 722.327 42.6807V69.249C722.327 76.1366 723.557 78.9656 728.23 78.9658C729.214 78.9658 730.322 78.8427 731.675 78.5967V88.1904C727.862 88.6824 724.664 88.8057 722.45 88.8057C715.562 88.8057 711.995 85.7307 710.765 78.5967C704.861 86.2226 695.267 90.4043 683.09 90.4043C666.608 90.4043 657.629 82.9016 657.629 70.6016C657.629 63.7136 660.827 58.4243 667.1 54.6113C671.036 52.2743 678.17 51.2906 688.256 50.1836C702.893 48.5846 710.149 48.9537 710.149 41.082C710.149 33.948 704.984 31.1191 693.053 31.1191C679.769 31.1192 673.496 34.6856 672.881 44.0332H660.458C661.319 28.5355 672.021 20.7871 692.192 20.7871ZM51.5303 0C66.0441 5.77614e-06 77.3603 0.491331 87.3232 8.24023C96.9172 15.7432 102.083 28.0435 102.083 44.4023C102.083 60.7612 96.9171 73.0614 87.3232 80.5645C77.3603 88.3134 66.0442 88.8057 51.5303 88.8057H12.416V77.8057H55.5889C66.0438 77.8057 73.547 76.2598 79.082 71.4629C84.986 66.4199 89.0449 56.4563 89.0449 44.2793C89.0448 32.1025 84.986 22.2627 79.082 17.2197C73.547 12.4227 66.0439 10.8057 55.5889 10.8057H12.416V0H51.5303ZM243.578 77.3662L278.756 0H297.452V88.8057H285.152L285.891 9.22461L249.975 88.8057H237.183L201.881 9.22461L202.619 88.8057H190.319V0H209.261L243.578 77.3662ZM428.079 21.2783C436.812 21.2783 443.577 23.8615 447.882 28.7812C452.679 34.3163 453.048 41.2049 453.048 51.0449V88.8057H441.117V50.5527C441.117 37.2687 437.181 31.3643 425.373 31.3643C411.351 31.3643 401.02 40.7127 401.02 55.3496V88.8057H389.088V23.001H400.896V34.3164C407.661 26.0756 416.271 21.2783 428.079 21.2783ZM622.924 21.2783C631.657 21.2784 638.422 23.8615 642.727 28.7812C647.524 34.3163 647.893 41.2049 647.893 51.0449V88.8057H635.962V50.5527C635.962 37.2688 632.026 31.3643 620.218 31.3643C606.196 31.3643 595.863 40.7126 595.863 55.3496V88.8057H583.933V23.001H595.74V34.3164C602.505 26.0754 611.116 21.2783 622.924 21.2783ZM161.427 54.9805C157.983 57.0714 151.464 58.4243 141.501 59.5312C128.709 61.0072 121.697 62.1146 121.697 70.1094C121.697 76.3824 126.864 80.3184 136.089 80.3184C151.341 80.3183 161.427 73.0613 161.427 64.8203V54.9805ZM556.517 54.9805C553.073 57.0715 546.553 58.4242 536.59 59.5312C523.798 61.0072 516.787 62.1147 516.787 70.1094C516.787 76.3823 521.953 80.3182 531.178 80.3184C546.43 80.3184 556.517 73.0613 556.517 64.8203V54.9805ZM710.396 54.9805C706.951 57.0714 700.433 58.4243 690.47 59.5312C677.678 61.0072 670.667 62.1147 670.667 70.1094C670.667 76.3823 675.833 80.3183 685.058 80.3184C700.31 80.3184 710.396 73.0613 710.396 64.8203V54.9805ZM344.083 31.8564C329.077 31.8564 319.605 41.0818 319.605 55.9648C319.606 70.8477 329.077 79.9492 344.083 79.9492C359.089 79.9491 368.436 70.8476 368.437 55.9648C368.437 41.082 359.089 31.8566 344.083 31.8564ZM24.9619 65.8057H12.416V22.8057H24.9619V65.8057Z" fill="url(#paint0_linear_4936_98)"/>
<path d="M359.866 140.077C357.481 140.077 355.276 139.685 353.253 138.9C351.229 138.084 349.478 136.952 347.998 135.502C346.518 134.053 345.355 132.346 344.51 130.383C343.694 128.42 343.287 126.276 343.287 123.951C343.287 121.625 343.694 119.481 344.51 117.518C345.355 115.555 346.518 113.849 347.998 112.399C349.508 110.95 351.275 109.832 353.298 109.047C355.321 108.232 357.526 107.824 359.912 107.824C362.207 107.824 364.366 108.216 366.39 109.002C368.413 109.757 370.119 110.904 371.509 112.444L369.379 114.574C368.081 113.245 366.646 112.293 365.076 111.72C363.506 111.116 361.814 110.814 360.002 110.814C358.1 110.814 356.333 111.146 354.702 111.81C353.071 112.444 351.652 113.366 350.444 114.574C349.236 115.751 348.285 117.141 347.59 118.741C346.926 120.312 346.594 122.048 346.594 123.951C346.594 125.853 346.926 127.605 347.59 129.205C348.285 130.776 349.236 132.165 350.444 133.373C351.652 134.551 353.071 135.472 354.702 136.136C356.333 136.771 358.1 137.088 360.002 137.088C361.814 137.088 363.506 136.786 365.076 136.182C366.646 135.578 368.081 134.611 369.379 133.282L371.509 135.412C370.119 136.952 368.413 138.114 366.39 138.9C364.366 139.685 362.192 140.077 359.866 140.077ZM394.118 140.077C391.732 140.077 389.512 139.685 387.459 138.9C385.435 138.084 383.669 136.952 382.159 135.502C380.679 134.022 379.516 132.316 378.671 130.383C377.855 128.42 377.447 126.276 377.447 123.951C377.447 121.625 377.855 119.496 378.671 117.563C379.516 115.6 380.679 113.894 382.159 112.444C383.669 110.965 385.435 109.832 387.459 109.047C389.482 108.232 391.702 107.824 394.118 107.824C396.504 107.824 398.708 108.232 400.732 109.047C402.755 109.832 404.507 110.95 405.986 112.399C407.496 113.849 408.659 115.555 409.475 117.518C410.32 119.481 410.743 121.625 410.743 123.951C410.743 126.276 410.32 128.42 409.475 130.383C408.659 132.346 407.496 134.053 405.986 135.502C404.507 136.952 402.755 138.084 400.732 138.9C398.708 139.685 396.504 140.077 394.118 140.077ZM394.118 137.088C396.02 137.088 397.772 136.771 399.373 136.136C401.003 135.472 402.408 134.551 403.586 133.373C404.794 132.165 405.73 130.776 406.394 129.205C407.059 127.605 407.391 125.853 407.391 123.951C407.391 122.048 407.059 120.312 406.394 118.741C405.73 117.141 404.794 115.751 403.586 114.574C402.408 113.366 401.003 112.444 399.373 111.81C397.772 111.146 396.02 110.814 394.118 110.814C392.215 110.814 390.449 111.146 388.818 111.81C387.187 112.444 385.768 113.366 384.56 114.574C383.382 115.751 382.446 117.141 381.751 118.741C381.087 120.312 380.754 122.048 380.754 123.951C380.754 125.823 381.087 127.56 381.751 129.16C382.446 130.761 383.382 132.165 384.56 133.373C385.768 134.551 387.187 135.472 388.818 136.136C390.449 136.771 392.215 137.088 394.118 137.088ZM420.522 139.806V108.096H433.432C436.815 108.096 439.774 108.775 442.311 110.134C444.878 111.463 446.871 113.32 448.291 115.706C449.71 118.092 450.42 120.84 450.42 123.951C450.42 127.061 449.71 129.809 448.291 132.195C446.871 134.581 444.878 136.453 442.311 137.812C439.774 139.141 436.815 139.806 433.432 139.806H420.522ZM423.874 136.906H433.251C436.06 136.906 438.491 136.363 440.544 135.276C442.628 134.158 444.244 132.633 445.391 130.7C446.539 128.737 447.113 126.487 447.113 123.951C447.113 121.384 446.539 119.134 445.391 117.201C444.244 115.268 442.628 113.758 440.544 112.671C438.491 111.554 436.06 110.995 433.251 110.995H423.874V136.906ZM463.202 122.275H479.963V125.128H463.202V122.275ZM463.564 136.906H482.636V139.806H460.212V108.096H481.956V110.995H463.564V136.906ZM513.334 133.554V114.347H516.188V133.554H513.334ZM504.908 125.31V122.637H524.614V125.31H504.908ZM549.344 139.806V108.096H562.254C565.636 108.096 568.596 108.775 571.133 110.134C573.7 111.463 575.693 113.32 577.112 115.706C578.532 118.092 579.242 120.84 579.242 123.951C579.242 127.061 578.532 129.809 577.112 132.195C575.693 134.581 573.7 136.453 571.133 137.812C568.596 139.141 565.636 139.806 562.254 139.806H549.344ZM552.696 136.906H562.073C564.881 136.906 567.313 136.363 569.366 135.276C571.45 134.158 573.066 132.633 574.213 130.7C575.361 128.737 575.935 126.487 575.935 123.951C575.935 121.384 575.361 119.134 574.213 117.201C573.066 115.268 571.45 113.758 569.366 112.671C567.313 111.554 564.881 110.995 562.073 110.995H552.696V136.906ZM592.024 122.275H608.785V125.128H592.024V122.275ZM592.386 136.906H611.458V139.806H589.034V108.096H610.778V110.995H592.386V136.906ZM630.345 140.077C627.99 140.077 625.725 139.7 623.55 138.945C621.406 138.16 619.745 137.163 618.567 135.955L619.881 133.373C620.998 134.46 622.493 135.381 624.366 136.136C626.268 136.861 628.262 137.224 630.345 137.224C632.339 137.224 633.954 136.982 635.192 136.499C636.461 135.985 637.382 135.306 637.956 134.46C638.56 133.615 638.862 132.678 638.862 131.652C638.862 130.413 638.499 129.417 637.775 128.662C637.08 127.907 636.159 127.318 635.011 126.895C633.864 126.442 632.595 126.05 631.206 125.717C629.817 125.385 628.428 125.038 627.038 124.675C625.649 124.283 624.366 123.769 623.188 123.135C622.04 122.501 621.104 121.671 620.379 120.644C619.685 119.587 619.337 118.213 619.337 116.521C619.337 114.951 619.745 113.517 620.561 112.218C621.406 110.889 622.69 109.832 624.411 109.047C626.132 108.232 628.337 107.824 631.025 107.824C632.807 107.824 634.573 108.081 636.325 108.594C638.077 109.077 639.587 109.757 640.855 110.632L639.722 113.305C638.363 112.399 636.914 111.735 635.374 111.312C633.864 110.889 632.399 110.678 630.98 110.678C629.077 110.678 627.507 110.934 626.268 111.448C625.03 111.961 624.109 112.656 623.505 113.532C622.931 114.377 622.644 115.344 622.644 116.431C622.644 117.669 622.992 118.666 623.686 119.421C624.411 120.176 625.347 120.765 626.495 121.187C627.673 121.61 628.956 121.988 630.345 122.32C631.735 122.652 633.109 123.014 634.468 123.407C635.857 123.8 637.125 124.313 638.273 124.947C639.451 125.551 640.387 126.367 641.081 127.393C641.806 128.42 642.169 129.764 642.169 131.425C642.169 132.965 641.746 134.4 640.9 135.729C640.055 137.027 638.756 138.084 637.004 138.9C635.283 139.685 633.063 140.077 630.345 140.077ZM651.738 139.806V108.096H655.09V139.806H651.738ZM681.579 140.077C679.163 140.077 676.928 139.685 674.875 138.9C672.851 138.084 671.085 136.952 669.575 135.502C668.095 134.053 666.932 132.346 666.087 130.383C665.271 128.42 664.864 126.276 664.864 123.951C664.864 121.625 665.271 119.481 666.087 117.518C666.932 115.555 668.11 113.849 669.62 112.399C671.13 110.95 672.897 109.832 674.92 109.047C676.974 108.232 679.209 107.824 681.625 107.824C684.041 107.824 686.245 108.201 688.238 108.956C690.262 109.711 691.983 110.859 693.403 112.399L691.319 114.528C689.99 113.199 688.525 112.248 686.925 111.674C685.324 111.101 683.603 110.814 681.76 110.814C679.797 110.814 677.985 111.146 676.324 111.81C674.694 112.444 673.259 113.366 672.021 114.574C670.813 115.751 669.862 117.141 669.167 118.741C668.503 120.312 668.17 122.048 668.17 123.951C668.17 125.823 668.503 127.56 669.167 129.16C669.862 130.761 670.813 132.165 672.021 133.373C673.259 134.551 674.694 135.472 676.324 136.136C677.985 136.771 679.782 137.088 681.715 137.088C683.527 137.088 685.233 136.816 686.834 136.272C688.465 135.729 689.96 134.808 691.319 133.509L693.221 136.046C691.711 137.375 689.945 138.386 687.921 139.081C685.898 139.745 683.784 140.077 681.579 140.077ZM690.005 135.638V123.951H693.221V136.046L690.005 135.638ZM704.974 139.806V108.096H707.737L729.617 135.638H728.167V108.096H731.474V139.806H728.711L706.876 112.263H708.326V139.806H704.974Z" fill="#1B91F2"/>
<path d="M0 22.8057L12.5 22.8057V16.8057V10.8057L0 10.8057V22.8057Z" fill="#2A3F94"/>
<path d="M0 77.8057H12.5V71.8057V65.8057H0V77.8057Z" fill="#2A3F94"/>
<path d="M12.5 22.8057L25 22.8057V65.8057H12.5V44.3057V22.8057Z" fill="#2A3F94"/>
<defs>
<linearGradient id="paint0_linear_4936_98" x1="-1" y1="44.3057" x2="734" y2="44.3057" gradientUnits="userSpaceOnUse">
<stop stop-color="#2A3A8F"/>
<stop offset="0.831731" stop-color="#2198F9"/>
</linearGradient>
</defs>
</svg>
