<svg width="612" height="612" viewBox="0 0 612 612" fill="none" xmlns="http://www.w3.org/2000/svg">
<rect width="611.886" height="611.886" fill="white"/>
<path d="M308.517 92.2665C379 92.2665 433.953 94.6561 482.336 132.287C528.927 168.723 554.014 228.455 554.014 307.898C554.014 387.341 528.927 447.073 482.336 483.51C433.953 521.141 379 523.529 308.517 523.529H118.57V470.111H328.229C379 470.111 415.436 462.603 442.315 439.308C470.987 414.818 490.698 366.435 490.698 307.301C490.698 248.166 470.987 200.381 442.315 175.892C415.436 152.596 379 144.743 328.229 144.743H118.57V92.2665H308.517ZM179.496 411.836H118.57V203.018H179.496V411.836Z" fill="url(#paint0_linear_4945_54)"/>
<path d="M58.2754 203.018L118.978 203.018V173.881V144.743L58.2754 144.743V203.018Z" fill="#2A3F94"/>
<path d="M58.2754 470.111H118.978V440.974V411.836H58.2754V470.111Z" fill="#2A3F94"/>
<path d="M118.979 203.018L179.681 203.018V411.836H118.979V307.427V203.018Z" fill="#2A3F94"/>
<defs>
<linearGradient id="paint0_linear_4945_54" x1="110.448" y1="301.909" x2="555.421" y2="301.909" gradientUnits="userSpaceOnUse">
<stop stop-color="#2A3A8F"/>
<stop offset="0.850962" stop-color="#2573D0"/>
</linearGradient>
</defs>
</svg>
